<svg xmlns="http://www.w3.org/2000/svg" width="58.626" height="83.183" viewBox="0 0 58.626 83.183">
    <path id="Caminho_108" data-name="Caminho 108" d="M29.314,61.679c-.6,0-1.183.054-1.773.091L29.377,58.6A28.852,28.852,0,0,0,58.624,30.156q.008-.6-.009-1.209a29.23,29.23,0,0,0-4.888-16.41h4.88V0H28.314V.047A28.437,28.437,0,0,0,0,28.611q0,.168,0,.336A29.2,29.2,0,0,0,14.579,54.815L13,57.545,6.728,68.416l1.89,1.889c.593-.585,1.22-1.137,1.854-1.671-.638.536-1.265,1.084-1.854,1.671l9.4,9.4a14.632,14.632,0,0,1,11.293-5.339A14.873,14.873,0,0,1,42.83,83.183l11.915-6.889A29.623,29.623,0,0,0,29.316,61.679m0-48.991c8.383,0,15.123,6.979,15.123,16.259,0,9.675-6.74,16.972-15.123,16.972s-15.124-7.3-15.124-16.972c0-9.274,6.739-16.259,15.124-16.259M12.053,67.41h0c-.336.245-.676.482-1,.742q.488-.387.992-.752" transform="translate(0)" fill="#3fa896"/>
</svg>
