<svg id="Grupo_1291" data-name="Grupo 1291" xmlns="http://www.w3.org/2000/svg" xmlns:xlink="http://www.w3.org/1999/xlink" width="176.719" height="64.334" viewBox="0 0 176.719 64.334">
    <defs>
        <clipPath id="clip-path">
            <path id="Caminho_126" data-name="Caminho 126" d="M1328.083,367.633a2.336,2.336,0,0,0-.54,1.639v25.8a2.336,2.336,0,0,0,.54,1.639l.087.085,14.456-14.455V382l-14.456-14.455Z" transform="translate(-1327.543 -367.548)" fill="none"/>
        </clipPath>
        <linearGradient id="linear-gradient" x1="-44.03" y1="2.901" x2="-43.996" y2="2.901" gradientUnits="objectBoundingBox">
            <stop offset="0" stop-color="#4595d1"/>
            <stop offset="0.007" stop-color="#4496d2"/>
            <stop offset="0.26" stop-color="#3db7ea"/>
            <stop offset="0.512" stop-color="#48c0ec"/>
            <stop offset="0.76" stop-color="#5bc2e5"/>
            <stop offset="1" stop-color="#5fc3e4"/>
        </linearGradient>
        <clipPath id="clip-path-2">
            <path id="Caminho_127" data-name="Caminho 127" d="M1341.964,381.58v.342l4.817,4.821.109-.063,5.71-3.243c1.629-.929,1.629-2.445,0-3.37l-5.71-3.245-.108-.062Z" transform="translate(-1341.964 -376.761)" fill="none"/>
        </clipPath>
        <linearGradient id="linear-gradient-2" x1="-114.424" y1="8.022" x2="-114.338" y2="8.022" gradientUnits="objectBoundingBox">
            <stop offset="0" stop-color="#ffdf05"/>
            <stop offset="0.409" stop-color="#fabb0c"/>
            <stop offset="0.775" stop-color="#f5a216"/>
            <stop offset="1" stop-color="#f4991a"/>
        </linearGradient>
        <clipPath id="clip-path-3">
            <path id="Caminho_128" data-name="Caminho 128" d="M1328.059,396.073a1.9,1.9,0,0,0,2.425.072l17.043-9.685-4.926-4.928Z" transform="translate(-1328.059 -381.533)" fill="none"/>
        </clipPath>
        <linearGradient id="linear-gradient-3" x1="-56.588" y1="3.253" x2="-56.545" y2="3.253" gradientUnits="objectBoundingBox">
            <stop offset="0" stop-color="#e73f49"/>
            <stop offset="1" stop-color="#c20f62"/>
        </linearGradient>
        <clipPath id="clip-path-4">
            <path id="Caminho_129" data-name="Caminho 129" d="M1328.059,367.649l14.542,14.541,4.926-4.929-17.043-9.684a2.686,2.686,0,0,0-1.308-.393,1.494,1.494,0,0,0-1.117.464" transform="translate(-1328.059 -367.185)" fill="none"/>
        </clipPath>
        <linearGradient id="linear-gradient-4" x1="-56.877" y1="3.884" x2="-56.834" y2="3.884" gradientUnits="objectBoundingBox">
            <stop offset="0" stop-color="#319f71"/>
            <stop offset="0.068" stop-color="#2ba671"/>
            <stop offset="0.476" stop-color="#4eb16f"/>
            <stop offset="0.801" stop-color="#60b468"/>
            <stop offset="1" stop-color="#63b563"/>
        </linearGradient>
    </defs>
    <path id="Caminho_124" data-name="Caminho 124" d="M1484.989,409.576h-165.51a5.6,5.6,0,0,1-5.6-5.6V350.848a5.605,5.605,0,0,1,5.6-5.606h165.51a5.605,5.605,0,0,1,5.6,5.606v53.124a5.6,5.6,0,0,1-5.6,5.6" transform="translate(-1313.874 -345.242)" fill="#1d1d1b"/>
    <path id="Caminho_125" data-name="Caminho 125" d="M1446.9,389.67h2.428V373.4H1446.9Zm21.87-10.407-2.783,7.053h-.084l-2.889-7.053H1460.4l4.332,9.857-2.468,5.483h2.531l6.677-15.341ZM1455,387.822c-.8,0-1.906-.4-1.906-1.382,0-1.254,1.381-1.736,2.575-1.736a4.328,4.328,0,0,1,2.218.544,2.943,2.943,0,0,1-2.888,2.574m.293-8.915a4.557,4.557,0,0,0-4.332,2.491l2.156.9a2.3,2.3,0,0,1,2.218-1.193,2.337,2.337,0,0,1,2.553,2.093v.167a5.374,5.374,0,0,0-2.532-.628c-2.323,0-4.688,1.277-4.688,3.662a3.758,3.758,0,0,0,4.039,3.58,3.423,3.423,0,0,0,3.1-1.592h.084v1.256h2.344v-6.236c0-2.888-2.156-4.5-4.938-4.5m-15.006,2.336h-3.453v-5.576h3.453a2.789,2.789,0,1,1,0,5.576m-.063-7.841H1434.4V389.67h2.426v-6.162h3.391a5.06,5.06,0,1,0,0-10.1M1408.5,387.825a3.366,3.366,0,0,1,0-6.708,3.381,3.381,0,0,1,0,6.708m2.788-7.651h-.085a3.835,3.835,0,0,0-2.914-1.236,5.539,5.539,0,0,0,0,11.068,3.77,3.77,0,0,0,2.914-1.258h.085v.8c0,2.117-1.132,3.248-2.957,3.248a3.062,3.062,0,0,1-2.788-1.971l-2.117.882a5.274,5.274,0,0,0,4.905,3.269c2.851,0,5.263-1.677,5.263-5.764v-9.938h-2.306Zm3.983,9.5h2.432V373.4h-2.432Zm6.016-5.366a3.037,3.037,0,0,1,2.893-3.229,2.142,2.142,0,0,1,2.055,1.173Zm7.548-1.845a5.144,5.144,0,0,0-4.738-3.521,5.259,5.259,0,0,0-5.22,5.535,5.415,5.415,0,0,0,5.492,5.534,5.5,5.5,0,0,0,4.612-2.453l-1.887-1.258a3.16,3.16,0,0,1-2.725,1.53,2.816,2.816,0,0,1-2.684-1.676l7.4-3.061Zm-58.958-1.823v2.347h5.618a4.9,4.9,0,0,1-1.278,2.956,5.757,5.757,0,0,1-4.34,1.72,6.248,6.248,0,0,1,0-12.495,5.986,5.986,0,0,1,4.235,1.678l1.657-1.657a8.193,8.193,0,0,0-5.891-2.37,8.6,8.6,0,1,0,0,17.191,7.858,7.858,0,0,0,5.995-2.411,7.749,7.749,0,0,0,2.034-5.493,7.568,7.568,0,0,0-.126-1.466Zm14.417,7.189a3.363,3.363,0,1,1,3.123-3.353,3.2,3.2,0,0,1-3.123,3.353m0-8.888a5.534,5.534,0,1,0,5.555,5.535,5.455,5.455,0,0,0-5.555-5.535m12.118,8.888a3.363,3.363,0,1,1,3.123-3.353,3.2,3.2,0,0,1-3.123,3.353m0-8.888a5.534,5.534,0,1,0,5.556,5.535,5.455,5.455,0,0,0-5.556-5.535" transform="translate(-1311.706 -343.978)" fill="#fff"/>
    <g id="Grupo_1282" data-name="Grupo 1282" transform="translate(14.296 23.329)">
        <g id="Grupo_1281" data-name="Grupo 1281" transform="translate(0 0)" clip-path="url(#clip-path)">
            <rect id="Retângulo_130" data-name="Retângulo 130" width="31.349" height="31.349" transform="translate(-14.626 14.626) rotate(-45)" fill="url(#linear-gradient)"/>
        </g>
    </g>
    <g id="Grupo_1284" data-name="Grupo 1284" transform="translate(29.378 32.964)">
        <g id="Grupo_1283" data-name="Grupo 1283" transform="translate(0 0)" clip-path="url(#clip-path-2)">
            <rect id="Retângulo_131" data-name="Retângulo 131" width="12.266" height="9.983" transform="translate(0 0)" fill="url(#linear-gradient-2)"/>
        </g>
    </g>
    <g id="Grupo_1286" data-name="Grupo 1286" transform="translate(14.835 37.955)">
        <g id="Grupo_1285" data-name="Grupo 1285" transform="translate(0 0)" clip-path="url(#clip-path-3)">
            <rect id="Retângulo_132" data-name="Retângulo 132" width="24.5" height="24.5" transform="translate(-7.59 7.59) rotate(-45)" fill="url(#linear-gradient-3)"/>
        </g>
    </g>
    <g id="Grupo_1288" data-name="Grupo 1288" transform="translate(14.835 22.949)">
        <g id="Grupo_1287" data-name="Grupo 1287" transform="translate(0 0)" clip-path="url(#clip-path-4)">
            <rect id="Retângulo_133" data-name="Retângulo 133" width="24.377" height="24.377" transform="translate(-7.503 7.503) rotate(-45)" fill="url(#linear-gradient-4)"/>
        </g>
    </g>
    <text id="Disponível_no" data-name="Disponível no" transform="translate(47.753 21.184)" fill="#fff" font-size="12" font-family="Montserrat-Light, Montserrat" font-weight="300"><tspan x="0" y="0">Disponí</tspan><tspan y="0" letter-spacing="-0.015em">v</tspan><tspan y="0">el </tspan><tspan y="0" letter-spacing="0.001em">n</tspan><tspan y="0">o</tspan></text>
</svg>
