<svg xmlns="http://www.w3.org/2000/svg" xmlns:xlink="http://www.w3.org/1999/xlink" width="322" height="95" viewBox="0 0 322 95">
  <defs>
    <clipPath id="clip-path">
      <rect id="Retângulo_247" data-name="Retângulo 247" width="322" height="95" transform="translate(-0.18 -0.363)" fill="none"/>
    </clipPath>
    <clipPath id="clip-path-2">
      <path id="Caminho_197" data-name="Caminho 197" d="M22.356,14.527a3.4,3.4,0,0,0-.779,2.374V54.309a3.394,3.394,0,0,0,.779,2.374l.129.124L43.438,35.851v-.494L22.484,14.4Z" transform="translate(-21.577 -14.403)" fill="none"/>
    </clipPath>
    <linearGradient id="linear-gradient" x1="-0.937" y1="1.297" x2="-0.882" y2="1.297" gradientUnits="objectBoundingBox">
      <stop offset="0" stop-color="#1e85c9"/>
      <stop offset="0.007" stop-color="#1d86ca"/>
      <stop offset="0.26" stop-color="#00aee9"/>
      <stop offset="0.512" stop-color="#18baeb"/>
      <stop offset="0.76" stop-color="#34bce0"/>
      <stop offset="1" stop-color="#39bdde"/>
    </linearGradient>
    <clipPath id="clip-path-3">
      <path id="Caminho_198" data-name="Caminho 198" d="M30.25,26.93v.494l6.982,6.99.159-.091,8.275-4.7c2.364-1.343,2.364-3.541,0-4.882l-8.275-4.706-.156-.088Z" transform="translate(-30.25 -19.945)" fill="none"/>
    </clipPath>
    <linearGradient id="linear-gradient-2" x1="-4.288" y1="2.971" x2="-4.147" y2="2.971" gradientUnits="objectBoundingBox">
      <stop offset="0" stop-color="#ffd613"/>
      <stop offset="0.409" stop-color="#ffaa14"/>
      <stop offset="0.775" stop-color="#fb8f19"/>
      <stop offset="1" stop-color="#f9851b"/>
    </linearGradient>
    <clipPath id="clip-path-4">
      <path id="Caminho_199" data-name="Caminho 199" d="M21.886,43.894c.781.824,2.067.928,3.516.106L50.109,29.96l-7.141-7.146Z" transform="translate(-21.886 -22.814)" fill="none"/>
    </clipPath>
    <linearGradient id="linear-gradient-3" x1="-1.45" y1="1.194" x2="-1.38" y2="1.194" gradientUnits="objectBoundingBox">
      <stop offset="0" stop-color="#e83341"/>
      <stop offset="1" stop-color="#ae0057"/>
    </linearGradient>
    <clipPath id="clip-path-5">
      <path id="Caminho_200" data-name="Caminho 200" d="M21.886,14.858,42.968,35.935l7.141-7.143L25.4,14.755a3.858,3.858,0,0,0-1.893-.57,2.168,2.168,0,0,0-1.623.673" transform="translate(-21.886 -14.185)" fill="none"/>
    </clipPath>
    <linearGradient id="linear-gradient-4" x1="-1.461" y1="1.813" x2="-1.389" y2="1.813" gradientUnits="objectBoundingBox">
      <stop offset="0" stop-color="#379766"/>
      <stop offset="0.068" stop-color="#36a067"/>
      <stop offset="0.476" stop-color="#4cae66"/>
      <stop offset="0.801" stop-color="#5ab160"/>
      <stop offset="1" stop-color="#5db15c"/>
    </linearGradient>
  </defs>
  <g id="Grupo_1367" data-name="Grupo 1367" transform="translate(-0.267 0.82)">
    <g id="Grupo_1356" data-name="Grupo 1356" transform="translate(0.447 -0.457)">
      <g id="Grupo_1355" data-name="Grupo 1355" clip-path="url(#clip-path)">
        <path id="Caminho_195" data-name="Caminho 195" d="M311.6,93.26H11.025A11.024,11.024,0,0,1,0,82.235V11.028A11.026,11.026,0,0,1,11.025,0H311.6a11.026,11.026,0,0,1,11.025,11.028V82.235A11.024,11.024,0,0,1,311.6,93.26" transform="translate(-0.496 0.507)"/>
        <path id="Caminho_196" data-name="Caminho 196" d="M166.088,42h3.519V18.423h-3.519Zm31.7-15.086-4.033,10.224h-.121l-4.189-10.224h-3.791l6.281,14.289-3.579,7.948h3.667L201.7,26.917ZM177.829,39.326c-1.154,0-2.76-.577-2.76-2,0-1.817,2-2.516,3.73-2.516a6.284,6.284,0,0,1,3.216.786,4.267,4.267,0,0,1-4.187,3.733m.426-12.923a6.6,6.6,0,0,0-6.279,3.61l3.123,1.3a3.337,3.337,0,0,1,3.216-1.729c1.82,0,3.67,1.091,3.7,3.035v.242a7.767,7.767,0,0,0-3.67-.91c-3.368,0-6.8,1.85-6.8,5.308,0,3.156,2.763,5.19,5.855,5.19a4.967,4.967,0,0,0,4.492-2.306h.121v1.82h3.4V32.924c0-4.187-3.123-6.521-7.159-6.521M156.5,29.788H151.5V21.7H156.5a4.043,4.043,0,1,1,0,8.084m-.091-11.365h-8.434V42H151.5V33.07h4.915a7.473,7.473,0,0,0,7.736-7.325,7.472,7.472,0,0,0-7.736-7.322M110.422,39.329a4.6,4.6,0,0,1-4.467-4.829,4.641,4.641,0,0,1,4.467-4.9c2.4,0,4.283,2.069,4.283,4.9,0,2.8-1.883,4.829-4.283,4.829m4.041-11.091h-.121a5.558,5.558,0,0,0-4.225-1.792,8.029,8.029,0,0,0,0,16.044,5.469,5.469,0,0,0,4.225-1.822h.121v1.157c0,3.068-1.641,4.709-4.285,4.709a4.44,4.44,0,0,1-4.043-2.858l-3.068,1.278a7.644,7.644,0,0,0,7.111,4.741c4.134,0,7.627-2.432,7.627-8.358V26.93h-3.342ZM120.238,42h3.526V18.42h-3.526Zm8.721-7.779a4.4,4.4,0,0,1,4.192-4.678,3.1,3.1,0,0,1,2.979,1.7ZM139.9,31.55c-.668-1.792-2.7-5.1-6.869-5.1-4.131,0-7.564,3.249-7.564,8.023a7.849,7.849,0,0,0,7.96,8.021,7.986,7.986,0,0,0,6.687-3.554l-2.735-1.825a4.584,4.584,0,0,1-3.952,2.218,4.079,4.079,0,0,1-3.889-2.43l10.728-4.439ZM54.434,28.909v3.4h8.142a7.084,7.084,0,0,1-1.853,4.283,8.33,8.33,0,0,1-6.289,2.493,9.056,9.056,0,0,1,0-18.111,8.684,8.684,0,0,1,6.138,2.43l2.4-2.4a11.866,11.866,0,0,0-8.537-3.436A12.636,12.636,0,0,0,41.791,30.033,12.634,12.634,0,0,0,54.434,42.49,11.389,11.389,0,0,0,63.123,39a11.238,11.238,0,0,0,2.949-7.963,10.9,10.9,0,0,0-.184-2.125Zm20.9,10.42a4.64,4.64,0,0,1-4.53-4.86,4.54,4.54,0,1,1,9.057,0,4.64,4.64,0,0,1-4.527,4.86m0-12.883a8.022,8.022,0,1,0,8.051,8.023,7.909,7.909,0,0,0-8.051-8.023M92.9,39.329a4.64,4.64,0,0,1-4.53-4.86,4.54,4.54,0,1,1,9.057,0,4.638,4.638,0,0,1-4.527,4.86m0-12.883a8.022,8.022,0,1,0,8.053,8.023A7.908,7.908,0,0,0,92.9,26.446" transform="translate(63.052 27.226)" fill="#fff"/>
      </g>
    </g>
    <g id="Grupo_1358" data-name="Grupo 1358" transform="translate(54.339 36.355)">
      <g id="Grupo_1357" data-name="Grupo 1357" clip-path="url(#clip-path-2)">
        <rect id="Retângulo_248" data-name="Retângulo 248" width="45.443" height="45.443" transform="translate(-21.202 21.201) rotate(-45)" fill="url(#linear-gradient)"/>
      </g>
    </g>
    <g id="Grupo_1360" data-name="Grupo 1360" transform="translate(76.2 50.324)">
      <g id="Grupo_1359" data-name="Grupo 1359" clip-path="url(#clip-path-3)">
        <rect id="Retângulo_249" data-name="Retângulo 249" width="17.78" height="14.468" transform="translate(0 -0.001)" fill="url(#linear-gradient-2)"/>
      </g>
    </g>
    <g id="Grupo_1362" data-name="Grupo 1362" transform="translate(55.117 57.556)">
      <g id="Grupo_1361" data-name="Grupo 1361" clip-path="url(#clip-path-4)">
        <rect id="Retângulo_250" data-name="Retângulo 250" width="35.519" height="35.519" transform="translate(-11.004 11.003) rotate(-45)" fill="url(#linear-gradient-3)"/>
      </g>
    </g>
    <g id="Grupo_1364" data-name="Grupo 1364" transform="translate(55.117 35.805)">
      <g id="Grupo_1363" data-name="Grupo 1363" clip-path="url(#clip-path-5)">
        <rect id="Retângulo_251" data-name="Retângulo 251" width="35.337" height="35.337" transform="translate(-10.875 10.874) rotate(-45)" fill="url(#linear-gradient-4)"/>
      </g>
    </g>
    <g id="Grupo_1366" data-name="Grupo 1366" transform="translate(0.447 -0.457)">
      <g id="Grupo_1365" data-name="Grupo 1365" clip-path="url(#clip-path)">
        <path id="Caminho_201" data-name="Caminho 201" d="M41.762,8.061h5.409a7.92,7.92,0,0,1,3.776.877,6.452,6.452,0,0,1,2.569,2.43,6.823,6.823,0,0,1,.915,3.526,6.8,6.8,0,0,1-.915,3.521,6.441,6.441,0,0,1-2.569,2.432,7.92,7.92,0,0,1-3.776.877H41.762Zm5.331,12.767a7.126,7.126,0,0,0,3.337-.751,5.363,5.363,0,0,0,2.226-2.1,6.046,6.046,0,0,0,.781-3.083,6.055,6.055,0,0,0-.781-3.085,5.394,5.394,0,0,0-2.226-2.1,7.126,7.126,0,0,0-3.337-.751H42.758v11.87Z" transform="translate(63.008 12.765)" fill="#fff"/>
        <path id="Caminho_202" data-name="Caminho 202" d="M48.146,9.185a.739.739,0,0,1-.234-.557.8.8,0,0,1,.8-.8.794.794,0,0,1,.567.224.741.741,0,0,1,.237.557.8.8,0,0,1-.8.8.792.792,0,0,1-.565-.224m.078,2.7H49.2V22.078h-.975Z" transform="translate(72.36 12.412)" fill="#fff"/>
        <path id="Caminho_203" data-name="Caminho 203" d="M51.2,19.385a4.791,4.791,0,0,1-1.737-.938l.449-.781a5.075,5.075,0,0,0,1.611.88,6.085,6.085,0,0,0,2.059.35,4.08,4.08,0,0,0,2.276-.5,1.627,1.627,0,0,0,.731-1.409,1.3,1.3,0,0,0-.4-1.013,2.488,2.488,0,0,0-.986-.547,16.424,16.424,0,0,0-1.621-.371,13.606,13.606,0,0,1-1.951-.469,3.015,3.015,0,0,1-1.27-.822,2.2,2.2,0,0,1-.527-1.56,2.443,2.443,0,0,1,1.006-2A4.541,4.541,0,0,1,53.7,9.408a6.944,6.944,0,0,1,1.933.275,4.824,4.824,0,0,1,1.56.723l-.449.781a4.623,4.623,0,0,0-1.427-.686,5.786,5.786,0,0,0-1.638-.234,3.636,3.636,0,0,0-2.148.527,1.639,1.639,0,0,0-.721,1.386,1.383,1.383,0,0,0,.408,1.064,2.555,2.555,0,0,0,1.006.567,16.848,16.848,0,0,0,1.669.4,14.5,14.5,0,0,1,1.923.461,2.917,2.917,0,0,1,1.24.791,2.121,2.121,0,0,1,.507,1.5A2.385,2.385,0,0,1,56.508,19a5.026,5.026,0,0,1-2.967.759,7.387,7.387,0,0,1-2.344-.371" transform="translate(74.714 14.813)" fill="#fff"/>
        <path id="Caminho_204" data-name="Caminho 204" d="M61.449,10.073a4.736,4.736,0,0,1,1.807,1.835,5.389,5.389,0,0,1,.653,2.674,5.448,5.448,0,0,1-.653,2.684A4.653,4.653,0,0,1,61.449,19.1a5.133,5.133,0,0,1-2.579.653,4.779,4.779,0,0,1-2.44-.633,4.421,4.421,0,0,1-1.7-1.767v6.11h-.975V9.486h.935v2.4A4.456,4.456,0,0,1,56.4,10.063a4.748,4.748,0,0,1,2.468-.655,5.091,5.091,0,0,1,2.579.665m-.527,8.258A3.9,3.9,0,0,0,62.4,16.809a4.544,4.544,0,0,0,.537-2.226,4.544,4.544,0,0,0-.537-2.226,3.912,3.912,0,0,0-1.475-1.522,4.318,4.318,0,0,0-4.207,0,3.922,3.922,0,0,0-1.464,1.522,4.57,4.57,0,0,0-.534,2.226,4.57,4.57,0,0,0,.534,2.226,3.9,3.9,0,0,0,1.464,1.522,4.318,4.318,0,0,0,4.207,0" transform="translate(81.251 14.813)" fill="#fff"/>
        <path id="Caminho_205" data-name="Caminho 205" d="M61.035,19.092A4.783,4.783,0,0,1,59.21,17.25a5.382,5.382,0,0,1-.665-2.667,5.352,5.352,0,0,1,.665-2.664,4.773,4.773,0,0,1,1.825-1.845,5.437,5.437,0,0,1,5.213,0,4.739,4.739,0,0,1,1.825,1.845,5.324,5.324,0,0,1,.663,2.664,5.353,5.353,0,0,1-.663,2.667,4.749,4.749,0,0,1-1.825,1.843,5.455,5.455,0,0,1-5.213,0m4.706-.761a3.923,3.923,0,0,0,1.464-1.522,4.544,4.544,0,0,0,.537-2.226,4.544,4.544,0,0,0-.537-2.226,3.94,3.94,0,0,0-1.464-1.522,4.3,4.3,0,0,0-4.2,0,3.94,3.94,0,0,0-1.464,1.522,4.544,4.544,0,0,0-.537,2.226,4.544,4.544,0,0,0,.537,2.226,3.923,3.923,0,0,0,1.464,1.522,4.3,4.3,0,0,0,4.2,0" transform="translate(88.529 14.813)" fill="#fff"/>
        <path id="Caminho_206" data-name="Caminho 206" d="M71.794,10.522a4.34,4.34,0,0,1,1.112,3.2v5.954h-.975V13.8a3.608,3.608,0,0,0-.87-2.614,3.22,3.22,0,0,0-2.43-.9A3.744,3.744,0,0,0,65.8,11.361a3.985,3.985,0,0,0-1.036,2.889v5.427h-.975V9.486h.938v2.206A3.9,3.9,0,0,1,66.3,10.013a4.858,4.858,0,0,1,2.468-.6,4.088,4.088,0,0,1,3.027,1.114" transform="translate(96.503 14.813)" fill="#fff"/>
        <path id="Caminho_207" data-name="Caminho 207" d="M71.466,7.868h1.4l-3.063,2.3H68.754Zm-2.09,3.96h.975V22.019h-.975Z" transform="translate(104.053 12.471)" fill="#fff"/>
        <path id="Caminho_208" data-name="Caminho 208" d="M80.414,9.439,75.807,19.63h-1L70.226,9.439H71.26l4.058,9.117,4.1-9.117Z" transform="translate(106.291 14.86)" fill="#fff"/>
        <path id="Caminho_209" data-name="Caminho 209" d="M84.279,14.816H75.512a4.264,4.264,0,0,0,.6,2.117,3.841,3.841,0,0,0,1.533,1.437,4.589,4.589,0,0,0,2.178.509,4.7,4.7,0,0,0,1.845-.363,3.57,3.57,0,0,0,1.414-1.064l.567.645a4.43,4.43,0,0,1-1.669,1.23,5.525,5.525,0,0,1-2.18.429,5.467,5.467,0,0,1-2.712-.665,4.792,4.792,0,0,1-1.863-1.835,5.264,5.264,0,0,1-.676-2.674,5.524,5.524,0,0,1,.635-2.662,4.659,4.659,0,0,1,1.747-1.848,5.057,5.057,0,0,1,4.988-.01,4.664,4.664,0,0,1,1.739,1.825,5.482,5.482,0,0,1,.633,2.657ZM77.5,10.745a3.642,3.642,0,0,0-1.376,1.349,4.352,4.352,0,0,0-.595,1.961h7.809a4.081,4.081,0,0,0-.587-1.951,3.783,3.783,0,0,0-3.317-1.835,3.925,3.925,0,0,0-1.933.476" transform="translate(112.872 14.814)" fill="#fff"/>
        <rect id="Retângulo_252" data-name="Retângulo 252" width="0.975" height="14.486" transform="translate(200.193 20.006)" fill="#fff"/>
        <path id="Caminho_210" data-name="Caminho 210" d="M91.636,10.522a4.34,4.34,0,0,1,1.112,3.2v5.954h-.975V13.8a3.608,3.608,0,0,0-.87-2.614,3.22,3.22,0,0,0-2.43-.9,3.744,3.744,0,0,0-2.831,1.074,3.985,3.985,0,0,0-1.036,2.889v5.427h-.975V9.486h.938v2.206a3.9,3.9,0,0,1,1.573-1.679,4.858,4.858,0,0,1,2.468-.6,4.089,4.089,0,0,1,3.027,1.114" transform="translate(126.675 14.813)" fill="#fff"/>
        <path id="Caminho_211" data-name="Caminho 211" d="M90.9,19.092a4.783,4.783,0,0,1-1.825-1.843,5.382,5.382,0,0,1-.665-2.667,5.352,5.352,0,0,1,.665-2.664A4.773,4.773,0,0,1,90.9,10.073a5.437,5.437,0,0,1,5.213,0,4.739,4.739,0,0,1,1.825,1.845,5.324,5.324,0,0,1,.663,2.664,5.353,5.353,0,0,1-.663,2.667,4.749,4.749,0,0,1-1.825,1.843,5.455,5.455,0,0,1-5.213,0m4.706-.761a3.923,3.923,0,0,0,1.464-1.522,4.544,4.544,0,0,0,.537-2.226,4.544,4.544,0,0,0-.537-2.226,3.94,3.94,0,0,0-1.464-1.522,4.3,4.3,0,0,0-4.2,0,3.94,3.94,0,0,0-1.464,1.522,4.544,4.544,0,0,0-.537,2.226,4.544,4.544,0,0,0,.537,2.226,3.923,3.923,0,0,0,1.464,1.522,4.3,4.3,0,0,0,4.2,0" transform="translate(133.94 14.813)" fill="#fff"/>
      </g>
    </g>
  </g>
</svg>
