<svg xmlns="http://www.w3.org/2000/svg" xmlns:xlink="http://www.w3.org/1999/xlink" width="328" height="95" viewBox="0 0 328 95">
  <defs>
    <clipPath id="clip-path">
      <rect id="Ret창ngulo_255" data-name="Ret창ngulo 255" width="328" height="95" transform="translate(0.104 -0.063)" fill="none"/>
    </clipPath>
  </defs>
  <g id="Grupo_1369" data-name="Grupo 1369" transform="translate(-0.104 0.063)">
    <g id="Grupo_1368" data-name="Grupo 1368" transform="translate(0 0)" clip-path="url(#clip-path)">
      <path id="Caminho_212" data-name="Caminho 212" d="M316.988,94.873H11.216A11.215,11.215,0,0,1,0,83.657V11.218A11.217,11.217,0,0,1,11.216,0H316.988A11.217,11.217,0,0,1,328.2,11.218V83.657a11.215,11.215,0,0,1-11.216,11.216" transform="translate(0 0.001)"/>
      <path id="Caminho_213" data-name="Caminho 213" d="M54.261,29.23c-.074-7.911,6.48-11.762,6.777-11.939a14.563,14.563,0,0,0-11.48-6.208c-4.828-.508-9.513,2.892-11.97,2.892-2.508,0-6.3-2.841-10.38-2.759a15.29,15.29,0,0,0-12.865,7.846c-5.562,9.631-1.415,23.783,3.913,31.57,2.667,3.813,5.782,8.07,9.859,7.918,3.99-.167,5.477-2.541,10.293-2.541,4.775,0,6.172,2.541,10.331,2.446,4.282-.072,6.975-3.831,9.546-7.68a31.41,31.41,0,0,0,4.369-8.893,13.754,13.754,0,0,1-8.4-12.654" transform="translate(18.305 17.257)" fill="#fff"/>
      <path id="Caminho_214" data-name="Caminho 214" d="M30.96,15.179a13.969,13.969,0,0,0,3.2-10.039,14.249,14.249,0,0,0-9.218,4.772c-1.98,2.313-3.754,6.105-3.295,9.67,3.495.259,7.072-1.762,9.311-4.4" transform="translate(33.75 8.041)" fill="#fff"/>
      <path id="Caminho_215" data-name="Caminho 215" d="M67.558,49.188H62l-3.046-9.572H48.375l-2.9,9.572h-5.41l10.49-32.573h6.469ZM58.04,35.6,55.288,27.1q-.442-1.3-1.646-6.136h-.095Q53.062,23.042,52,27.1L49.291,35.6Z" transform="translate(62.665 25.99)" fill="#fff"/>
      <path id="Caminho_216" data-name="Caminho 216" d="M75.1,31.905q0,5.993-3.239,9.475a9.467,9.467,0,0,1-7.2,3.09q-4.642,0-6.672-3.333H57.9v12.37H52.674V28.185q0-3.769-.192-7.734h4.59l.29,3.723h.1a9.282,9.282,0,0,1,14.859-.918A12.961,12.961,0,0,1,75.1,31.905m-5.316.192a9.68,9.68,0,0,0-1.546-5.654A5.344,5.344,0,0,0,63.7,24.123a5.412,5.412,0,0,0-3.5,1.28,5.968,5.968,0,0,0-2.056,3.364,6.793,6.793,0,0,0-.238,1.59v3.918A6.274,6.274,0,0,0,59.462,38.6a5.215,5.215,0,0,0,4.087,1.764,5.324,5.324,0,0,0,4.587-2.269,9.981,9.981,0,0,0,1.646-6" transform="translate(82.092 31.236)" fill="#fff"/>
      <path id="Caminho_217" data-name="Caminho 217" d="M85.629,31.905q0,5.993-3.239,9.475a9.461,9.461,0,0,1-7.2,3.09q-4.635,0-6.664-3.333h-.1v12.37H63.21V28.185q0-3.769-.192-7.734h4.587l.292,3.723H68a9.282,9.282,0,0,1,14.859-.918,12.959,12.959,0,0,1,2.772,8.649m-5.31.192a9.662,9.662,0,0,0-1.549-5.654,5.344,5.344,0,0,0-4.541-2.321,5.424,5.424,0,0,0-3.505,1.28,5.96,5.96,0,0,0-2.051,3.364,6.706,6.706,0,0,0-.244,1.59v3.918A6.254,6.254,0,0,0,70,38.6a5.2,5.2,0,0,0,4.087,1.764,5.333,5.333,0,0,0,4.587-2.269,10.034,10.034,0,0,0,1.646-6" transform="translate(98.572 31.236)" fill="#fff"/>
      <path id="Caminho_218" data-name="Caminho 218" d="M95.946,40.349a8.677,8.677,0,0,1-2.895,6.767q-3.185,2.854-8.87,2.849a15.577,15.577,0,0,1-8.446-2.026l1.21-4.351a14.3,14.3,0,0,0,7.546,2.077,7.137,7.137,0,0,0,4.6-1.328,4.35,4.35,0,0,0,1.641-3.559,4.544,4.544,0,0,0-1.351-3.339,12.584,12.584,0,0,0-4.5-2.521q-8.554-3.2-8.552-9.341a8.261,8.261,0,0,1,3-6.582A11.836,11.836,0,0,1,87.3,16.425a15.786,15.786,0,0,1,7.39,1.549l-1.3,4.251a12.891,12.891,0,0,0-6.239-1.5,6.3,6.3,0,0,0-4.3,1.354,3.877,3.877,0,0,0-1.3,2.949,3.968,3.968,0,0,0,1.495,3.187,16.884,16.884,0,0,0,4.736,2.515,16.1,16.1,0,0,1,6.187,3.962,8.31,8.31,0,0,1,1.98,5.654" transform="translate(118.464 25.693)" fill="#fff"/>
      <path id="Caminho_219" data-name="Caminho 219" d="M99.073,27.64H93.321V39.046q0,4.35,3.049,4.349a9.432,9.432,0,0,0,2.315-.238l.144,3.962a11.744,11.744,0,0,1-4.057.577,6.253,6.253,0,0,1-4.834-1.88Q88.2,43.927,88.2,39.482V27.64H84.767V23.722H88.2v-4.3l5.123-1.549v5.846h5.751Z" transform="translate(132.592 27.962)" fill="#fff"/>
      <path id="Caminho_220" data-name="Caminho 220" d="M114.5,32a12.892,12.892,0,0,1-3.092,8.9,11.048,11.048,0,0,1-8.6,3.572,10.49,10.49,0,0,1-8.239-3.431A12.47,12.47,0,0,1,91.5,32.4a12.746,12.746,0,0,1,3.164-8.941,10.939,10.939,0,0,1,8.529-3.485A10.744,10.744,0,0,1,111.5,23.4a12.383,12.383,0,0,1,3,8.6m-5.416.169a10.585,10.585,0,0,0-1.4-5.572A5.155,5.155,0,0,0,103,23.787,5.23,5.23,0,0,0,98.212,26.6a10.787,10.787,0,0,0-1.4,5.672,10.577,10.577,0,0,0,1.4,5.572,5.266,5.266,0,0,0,4.741,2.808,5.206,5.206,0,0,0,4.682-2.857,10.58,10.58,0,0,0,1.449-5.623" transform="translate(143.117 31.236)" fill="#fff"/>
      <path id="Caminho_221" data-name="Caminho 221" d="M114.744,25.042A9.286,9.286,0,0,0,113.1,24.9a4.953,4.953,0,0,0-4.257,2.08,7.841,7.841,0,0,0-1.3,4.639V43.94h-5.216l.044-16.09q0-4.062-.19-7.4h4.544l.192,4.5h.138a8.037,8.037,0,0,1,2.613-3.721,6.3,6.3,0,0,1,3.772-1.259,8.638,8.638,0,0,1,1.3.092Z" transform="translate(159.832 31.238)" fill="#fff"/>
      <path id="Caminho_222" data-name="Caminho 222" d="M128.918,31.113a12.6,12.6,0,0,1-.19,2.369H113.074a6.819,6.819,0,0,0,2.269,5.318,7.75,7.75,0,0,0,5.123,1.639,17.34,17.34,0,0,0,6.331-1.11l.818,3.626a19.63,19.63,0,0,1-7.88,1.454q-5.454,0-8.577-3.218a11.891,11.891,0,0,1-3.116-8.629,13.462,13.462,0,0,1,2.9-8.844,10,10,0,0,1,8.211-3.767,8.761,8.761,0,0,1,7.693,3.767,12.7,12.7,0,0,1,2.069,7.4m-4.977-1.354a7.074,7.074,0,0,0-1.01-4.01,4.571,4.571,0,0,0-4.162-2.174,4.963,4.963,0,0,0-4.154,2.128,7.72,7.72,0,0,0-1.541,4.057Z" transform="translate(169 31.208)" fill="#fff"/>
      <path id="Caminho_223" data-name="Caminho 223" d="M41.422,22.685V6.459h5.59a13.479,13.479,0,0,1,2.89.233,5.466,5.466,0,0,1,2.38,1.162A6.6,6.6,0,0,1,54.2,10.626a10.849,10.849,0,0,1,.638,3.857,11.366,11.366,0,0,1-.431,3.277,7.978,7.978,0,0,1-1.11,2.364,5.851,5.851,0,0,1-1.477,1.469,6.052,6.052,0,0,1-1.939.815,11.015,11.015,0,0,1-2.605.277Zm2.146-1.915h3.464a8.5,8.5,0,0,0,2.521-.3,3.644,3.644,0,0,0,1.454-.844,5.116,5.116,0,0,0,1.19-2.051,10.038,10.038,0,0,0,.426-3.128,7.555,7.555,0,0,0-.836-3.913A4.223,4.223,0,0,0,49.756,8.7a8.5,8.5,0,0,0-2.777-.328h-3.41Z" transform="translate(64.792 10.104)" fill="#fff"/>
      <path id="Caminho_224" data-name="Caminho 224" d="M47.712,6.459H49.7v2.29H47.712Zm0,4.472H49.7V22.685H47.712Z" transform="translate(74.631 10.104)" fill="#fff"/>
      <path id="Caminho_225" data-name="Caminho 225" d="M49.361,16.61,51.33,16.3a2.765,2.765,0,0,0,.926,1.813,3.2,3.2,0,0,0,2.121.631,3.123,3.123,0,0,0,2.036-.556,1.666,1.666,0,0,0,.662-1.313,1.209,1.209,0,0,0-.585-1.062,8.533,8.533,0,0,0-2.036-.677,18.306,18.306,0,0,1-3.039-.959,2.888,2.888,0,0,1-1.721-2.692,3,3,0,0,1,.359-1.454,3.2,3.2,0,0,1,.98-1.115A4.147,4.147,0,0,1,52.3,8.335,6.11,6.11,0,0,1,54.023,8.1a6.849,6.849,0,0,1,2.428.4,3.316,3.316,0,0,1,1.544,1.08,4.221,4.221,0,0,1,.685,1.821l-1.949.267a2.123,2.123,0,0,0-.767-1.418,2.827,2.827,0,0,0-1.8-.508,3.284,3.284,0,0,0-1.959.451,1.33,1.33,0,0,0-.585,1.064,1.1,1.1,0,0,0,.241.7,1.747,1.747,0,0,0,.764.531q.3.112,1.762.51a23.736,23.736,0,0,1,2.949.926,2.961,2.961,0,0,1,1.31,1.044,2.9,2.9,0,0,1,.477,1.705,3.369,3.369,0,0,1-.579,1.877A3.739,3.739,0,0,1,56.866,19.9a6.077,6.077,0,0,1-2.48.485,5.529,5.529,0,0,1-3.492-.954,4.42,4.42,0,0,1-1.533-2.823" transform="translate(77.21 12.669)" fill="#fff"/>
      <path id="Caminho_226" data-name="Caminho 226" d="M54.092,24.625V8.366H55.9V9.891a4.44,4.44,0,0,1,1.451-1.344A3.966,3.966,0,0,1,59.315,8.1a4.66,4.66,0,0,1,2.657.774,4.75,4.75,0,0,1,1.736,2.185,7.98,7.98,0,0,1,.587,3.095,7.877,7.877,0,0,1-.646,3.249,4.94,4.94,0,0,1-4.477,2.985,3.754,3.754,0,0,1-1.787-.423,4.072,4.072,0,0,1-1.3-1.062v5.723Zm1.8-10.316a5.116,5.116,0,0,0,.918,3.354,2.827,2.827,0,0,0,2.226,1.082,2.875,2.875,0,0,0,2.274-1.121,5.353,5.353,0,0,0,.946-3.482,5.194,5.194,0,0,0-.923-3.364,2.784,2.784,0,0,0-2.208-1.121,2.871,2.871,0,0,0-2.254,1.192,5.332,5.332,0,0,0-.98,3.459" transform="translate(84.61 12.669)" fill="#fff"/>
      <path id="Caminho_227" data-name="Caminho 227" d="M58.718,14.242a6.065,6.065,0,0,1,1.813-4.836,5.475,5.475,0,0,1,3.7-1.308,5.279,5.279,0,0,1,3.964,1.59,6.045,6.045,0,0,1,1.536,4.39,7.818,7.818,0,0,1-.677,3.569,4.8,4.8,0,0,1-1.985,2.018,5.729,5.729,0,0,1-2.839.723,5.284,5.284,0,0,1-3.99-1.585,6.332,6.332,0,0,1-1.521-4.562m2.046,0a5.024,5.024,0,0,0,.985,3.382,3.282,3.282,0,0,0,4.949-.005,5.112,5.112,0,0,0,.985-3.444,4.851,4.851,0,0,0-.99-3.3,3.287,3.287,0,0,0-4.944-.005,4.992,4.992,0,0,0-.985,3.374" transform="translate(91.846 12.668)" fill="#fff"/>
      <path id="Caminho_228" data-name="Caminho 228" d="M63.924,20.119V8.365h1.792v1.672A4.225,4.225,0,0,1,69.458,8.1a4.919,4.919,0,0,1,1.954.382,3.094,3.094,0,0,1,1.333,1,3.855,3.855,0,0,1,.621,1.472,11.343,11.343,0,0,1,.11,1.936v7.228H71.483V12.967a5.332,5.332,0,0,0-.233-1.821,1.907,1.907,0,0,0-.823-.962,2.64,2.64,0,0,0-1.39-.362,3.23,3.23,0,0,0-2.2.81,3.984,3.984,0,0,0-.923,3.064v6.421Z" transform="translate(99.989 12.668)" fill="#fff"/>
      <path id="Caminho_229" data-name="Caminho 229" d="M69.074,9.524l1.472-3.1h2.613l-2.436,3.1Zm.1,1.462h1.992V22.74H69.174Z" transform="translate(108.045 10.049)" fill="#fff"/>
      <path id="Caminho_230" data-name="Caminho 230" d="M75.3,19.956,70.826,8.2h2.1l2.526,7.041q.408,1.135.751,2.364.265-.927.744-2.233L79.56,8.2h2.046L77.157,19.956Z" transform="translate(110.785 12.83)" fill="#fff"/>
      <path id="Caminho_231" data-name="Caminho 231" d="M84.17,16.334l2.056.254a5,5,0,0,1-1.8,2.8A6.106,6.106,0,0,1,76.97,18.8a6.2,6.2,0,0,1-1.513-4.454,6.479,6.479,0,0,1,1.531-4.6A5.153,5.153,0,0,1,80.95,8.1,5.029,5.029,0,0,1,84.8,9.7,6.391,6.391,0,0,1,86.3,14.221c0,.118-.005.295-.013.531H77.519a4.528,4.528,0,0,0,1.095,2.967,3.271,3.271,0,0,0,2.456,1.028,3.033,3.033,0,0,0,1.872-.577,3.816,3.816,0,0,0,1.228-1.836m-6.541-3.221h6.562a3.967,3.967,0,0,0-.751-2.223,3.048,3.048,0,0,0-2.467-1.151,3.165,3.165,0,0,0-2.308.915,3.645,3.645,0,0,0-1.036,2.459" transform="translate(118.029 12.668)" fill="#fff"/>
      <rect id="Ret창ngulo_254" data-name="Ret창ngulo 254" width="1.992" height="16.226" transform="translate(206.717 16.562)" fill="#fff"/>
      <path id="Caminho_232" data-name="Caminho 232" d="M85.053,20.119V8.365h1.792v1.672A4.225,4.225,0,0,1,90.587,8.1a4.919,4.919,0,0,1,1.954.382,3.094,3.094,0,0,1,1.333,1,3.854,3.854,0,0,1,.621,1.472,11.343,11.343,0,0,1,.11,1.936v7.228H92.612V12.967a5.332,5.332,0,0,0-.233-1.821,1.907,1.907,0,0,0-.823-.962,2.64,2.64,0,0,0-1.39-.362,3.23,3.23,0,0,0-2.2.81,3.984,3.984,0,0,0-.923,3.064v6.421Z" transform="translate(133.039 12.668)" fill="#fff"/>
      <path id="Caminho_233" data-name="Caminho 233" d="M98.052,18.669A7.44,7.44,0,0,1,95.924,20a6.153,6.153,0,0,1-2.2.39,4.281,4.281,0,0,1-2.98-.949,3.118,3.118,0,0,1-1.041-2.418A3.284,3.284,0,0,1,91.132,14.3a4.833,4.833,0,0,1,1.431-.654,14.287,14.287,0,0,1,1.772-.3,18.129,18.129,0,0,0,3.551-.687c.008-.272.013-.446.013-.521a2.21,2.21,0,0,0-.564-1.715,3.346,3.346,0,0,0-2.269-.674,3.513,3.513,0,0,0-2.074.492A3.03,3.03,0,0,0,92,11.984L90.05,11.72A4.824,4.824,0,0,1,90.924,9.7a3.864,3.864,0,0,1,1.762-1.187A7.9,7.9,0,0,1,95.352,8.1a7.065,7.065,0,0,1,2.446.354,3.24,3.24,0,0,1,1.385.892A3.163,3.163,0,0,1,99.8,10.7a11.607,11.607,0,0,1,.1,1.839v2.657a28.43,28.43,0,0,0,.126,3.516,4.5,4.5,0,0,0,.505,1.41H98.45a4.3,4.3,0,0,1-.4-1.451m-.167-4.449a14.609,14.609,0,0,1-3.254.754,7.518,7.518,0,0,0-1.739.4,1.745,1.745,0,0,0-.782.646,1.756,1.756,0,0,0,.323,2.274,2.594,2.594,0,0,0,1.767.533,4.1,4.1,0,0,0,2.046-.505,3.09,3.09,0,0,0,1.318-1.377,4.79,4.79,0,0,0,.321-1.992Z" transform="translate(140.317 12.669)" fill="#fff"/>
    </g>
  </g>
</svg>
