<svg id="Componente_1_1" data-name="Componente 1 – 1" xmlns="http://www.w3.org/2000/svg" width="52.038" height="52.037" viewBox="0 0 52.038 52.037">
    <path id="Caminho_110" data-name="Caminho 110" d="M66.85,491.617l-3.045-.813-1.716-2.634a.676.676,0,0,0-1.09,0L59.284,490.8l-3.046.813a.65.65,0,0,0-.337,1.038l1.983,2.439-.165,3.134a.651.651,0,0,0,.882.642l2.943-1.126,2.943,1.126a.651.651,0,0,0,.883-.642l-.165-3.134,1.983-2.439a.65.65,0,0,0-.338-1.038m-2.813,2.851a.651.651,0,0,0-.145.445l.126,2.385-2.241-.857a.65.65,0,0,0-.465,0l-2.241.857.126-2.385a.656.656,0,0,0-.145-.445l-1.508-1.854L59.86,492a.647.647,0,0,0,.377-.273l1.307-2.006,1.308,2.006a.644.644,0,0,0,.377.273l2.315.618Z" transform="translate(-35.525 -487.875)" fill="#fff"/>
    <path id="Caminho_111" data-name="Caminho 111" d="M47.071,512.336a.646.646,0,0,0-.451-.427l-3.044-.814-1.717-2.633a.675.675,0,0,0-1.09,0L39.053,511.1l-3.045.814a.65.65,0,0,0-.337,1.038l1.983,2.439-.165,3.134a.652.652,0,0,0,.268.561.645.645,0,0,0,.614.081l2.943-1.126,2.944,1.126a.65.65,0,0,0,.882-.642l-.165-3.134,1.983-2.439a.651.651,0,0,0,.113-.611m-3.264,2.424a.651.651,0,0,0-.145.445l.126,2.385-2.241-.858a.651.651,0,0,0-.465,0l-2.241.858.126-2.385a.656.656,0,0,0-.145-.445l-1.508-1.854,2.316-.618a.656.656,0,0,0,.377-.273l1.307-2.006,1.308,2.006a.653.653,0,0,0,.377.273l2.315.618Z" transform="translate(-35.525 -487.875)" fill="#fff"/>
    <path id="Caminho_112" data-name="Caminho 112" d="M87.531,512.336a.646.646,0,0,0-.451-.427l-3.044-.814-1.717-2.633a.675.675,0,0,0-1.09,0L79.513,511.1l-3.045.814a.65.65,0,0,0-.337,1.038l1.983,2.439-.165,3.134a.65.65,0,0,0,.882.642l2.943-1.126,2.943,1.126a.644.644,0,0,0,.615-.081.652.652,0,0,0,.268-.561l-.165-3.134,1.983-2.439a.651.651,0,0,0,.113-.611m-3.264,2.424a.651.651,0,0,0-.145.445l.126,2.385-2.241-.858a.654.654,0,0,0-.465,0l-2.241.858.126-2.385a.656.656,0,0,0-.145-.445l-1.508-1.854,2.316-.618a.656.656,0,0,0,.377-.273l1.307-2.006,1.308,2.006a.653.653,0,0,0,.377.273l2.315.618Z" transform="translate(-35.525 -487.875)" fill="#fff"/>
    <path id="Caminho_113" data-name="Caminho 113" d="M67.3,533.043a.647.647,0,0,0-.451-.427l-3.045-.813-1.716-2.634a.676.676,0,0,0-1.09,0L59.284,531.8l-3.046.813a.65.65,0,0,0-.337,1.038l1.983,2.439-.165,3.134a.651.651,0,0,0,.882.642l2.943-1.126,2.943,1.126a.651.651,0,0,0,.883-.642l-.165-3.134,1.983-2.439a.65.65,0,0,0,.113-.611m-3.264,2.424a.651.651,0,0,0-.145.445l.126,2.385-2.241-.857a.65.65,0,0,0-.465,0l-2.241.857.126-2.385a.656.656,0,0,0-.145-.445l-1.508-1.854,2.316-.618a.647.647,0,0,0,.377-.273l1.307-2.006,1.308,2.006a.644.644,0,0,0,.377.273l2.315.618Z" transform="translate(-35.525 -487.875)" fill="#fff"/>
    <path id="Caminho_114" data-name="Caminho 114" d="M78.836,487.875a8.727,8.727,0,1,0,8.727,8.727,8.737,8.737,0,0,0-8.727-8.727m0,16.153a7.426,7.426,0,1,1,7.426-7.426,7.434,7.434,0,0,1-7.426,7.426" transform="translate(-35.525 -487.875)" fill="#fff"/>
    <path id="Caminho_115" data-name="Caminho 115" d="M78.879,495.952h-.086a1.47,1.47,0,1,1,1.474-1.47.651.651,0,1,0,1.3,0,2.769,2.769,0,0,0-2.082-2.673v-.37a.651.651,0,1,0-1.3,0v.343a2.769,2.769,0,0,0,.608,5.471h.086a1.47,1.47,0,1,1-1.474,1.47.651.651,0,1,0-1.3,0,2.769,2.769,0,0,0,2.081,2.672v.371a.651.651,0,0,0,1.3,0v-.344a2.768,2.768,0,0,0-.607-5.47" transform="translate(-35.525 -487.875)" fill="#fff"/>
    <path id="Caminho_116" data-name="Caminho 116" d="M52.98,496.6a8.727,8.727,0,1,0-8.727,8.727A8.737,8.737,0,0,0,52.98,496.6m-8.727,7.426a7.426,7.426,0,1,1,7.426-7.426,7.434,7.434,0,0,1-7.426,7.426" transform="translate(-35.525 -487.875)" fill="#fff"/>
    <path id="Caminho_117" data-name="Caminho 117" d="M44.3,495.952h-.086a1.47,1.47,0,1,1,1.473-1.47.651.651,0,1,0,1.3,0,2.768,2.768,0,0,0-2.081-2.673v-.37a.65.65,0,1,0-1.3,0v.343a2.768,2.768,0,0,0,.608,5.471H44.3a1.47,1.47,0,1,1-1.474,1.47.651.651,0,1,0-1.3,0,2.769,2.769,0,0,0,2.081,2.672v.371a.65.65,0,0,0,1.3,0v-.344a2.768,2.768,0,0,0-.607-5.47" transform="translate(-35.525 -487.875)" fill="#fff"/>
    <path id="Caminho_118" data-name="Caminho 118" d="M78.836,522.458a8.727,8.727,0,1,0,8.727,8.727,8.737,8.737,0,0,0-8.727-8.727m0,16.153a7.426,7.426,0,1,1,7.426-7.426,7.435,7.435,0,0,1-7.426,7.426" transform="translate(-35.525 -487.875)" fill="#fff"/>
    <path id="Caminho_119" data-name="Caminho 119" d="M78.879,530.534h-.086a1.47,1.47,0,1,1,1.474-1.47.651.651,0,1,0,1.3,0,2.768,2.768,0,0,0-2.082-2.672v-.371a.651.651,0,0,0-1.3,0v.344a2.768,2.768,0,0,0,.608,5.47h.086A1.47,1.47,0,1,1,77.4,533.3a.651.651,0,1,0-1.3,0,2.769,2.769,0,0,0,2.081,2.673v.37a.651.651,0,1,0,1.3,0v-.343a2.768,2.768,0,0,0-.607-5.471" transform="translate(-35.525 -487.875)" fill="#fff"/>
    <path id="Caminho_120" data-name="Caminho 120" d="M44.253,539.912a8.727,8.727,0,1,0-8.727-8.727,8.737,8.737,0,0,0,8.727,8.727m0-16.153a7.426,7.426,0,1,1-7.426,7.426,7.434,7.434,0,0,1,7.426-7.426" transform="translate(-35.525 -487.875)" fill="#fff"/>
    <path id="Caminho_121" data-name="Caminho 121" d="M44.21,531.835H44.3a1.47,1.47,0,1,1-1.474,1.47.65.65,0,1,0-1.3,0,2.769,2.769,0,0,0,2.082,2.673v.37a.65.65,0,1,0,1.3,0v-.343a2.769,2.769,0,0,0-.608-5.471H44.21a1.47,1.47,0,1,1,1.474-1.47.651.651,0,1,0,1.3,0,2.769,2.769,0,0,0-2.081-2.672v-.371a.65.65,0,0,0-1.3,0v.344a2.768,2.768,0,0,0,.607,5.47" transform="translate(-35.525 -487.875)" fill="#fff"/>
    <path id="Caminho_122" data-name="Caminho 122" d="M72.168,510.583a.648.648,0,0,0-.451-.427l-6.158-1.644-3.472-5.327a.651.651,0,0,0-1.09,0l-3.471,5.327-6.159,1.644a.65.65,0,0,0-.337,1.038l4.012,4.935-.335,6.342a.651.651,0,0,0,.883.641l5.952-2.277,5.953,2.277a.642.642,0,0,0,.615-.081.651.651,0,0,0,.267-.56l-.334-6.342,4.012-4.935a.65.65,0,0,0,.113-.611m-5.293,4.92a.651.651,0,0,0-.145.445l.295,5.592-5.25-2.008a.643.643,0,0,0-.465,0l-5.251,2.008.3-5.592a.651.651,0,0,0-.145-.445l-3.536-4.349L58.1,509.7a.653.653,0,0,0,.377-.273l3.063-4.7,3.063,4.7a.653.653,0,0,0,.377.273l5.429,1.449Z" transform="translate(-35.525 -487.875)" fill="#fff"/>
</svg>
