<svg xmlns="http://www.w3.org/2000/svg" width="77.441" height="70.702" viewBox="0 0 77.441 70.702">
    <path id="Caminho_109" data-name="Caminho 109" d="M102.228,386.521a18.539,18.539,0,1,1-18.54-18.539h0a18.559,18.559,0,0,1,18.539,18.539m-39.5,0a20.958,20.958,0,1,0,20.958-20.959,20.958,20.958,0,0,0-20.958,20.959m34.9,0a13.944,13.944,0,1,0-13.944,13.944h0a13.959,13.959,0,0,0,13.943-13.944m-30.306,0a16.363,16.363,0,1,0,16.363-16.363,16.363,16.363,0,0,0-16.363,16.363m19.37,4.215a2.314,2.314,0,0,0-1.8-2.634v5.383a3.012,3.012,0,0,0,1.8-2.749m-6.012-8.43a2.315,2.315,0,0,0,1.795,2.634v-5.384a3.012,3.012,0,0,0-1.795,2.753Zm1.795-6.179v.892a5.43,5.43,0,0,0-4.215,5.287c0,3.6,2.212,4.615,4.215,5.161v6.022a3.013,3.013,0,0,1-1.795-2.749,1.209,1.209,0,0,0-2.419,0,5.434,5.434,0,0,0,4.215,5.288v.89a1.21,1.21,0,1,0,2.42.064c0-.021,0-.043,0-.064v-.895a5.434,5.434,0,0,0,4.216-5.287c0-3.6-2.215-4.615-4.216-5.161v-6.022a3.01,3.01,0,0,1,1.8,2.753,1.209,1.209,0,0,0,2.419,0,5.433,5.433,0,0,0-4.215-5.287v-.892a1.21,1.21,0,0,0-2.42,0ZM44.554,412.268l5.17,19.294-7.506,2.011-5.17-19.294Zm4.393.141c6.235-5.368,13.05-6.31,20.838-2.884l.046.021a85.826,85.826,0,0,0,19.824,5.419c1.279.94,1.505,1.509,1.481,1.642,0,.007-.252.825-3.657,1.6-1.17.268-4.9-.43-7.9-.99a59.536,59.536,0,0,0-6.653-1.019h-.086a8.2,8.2,0,0,0-4.288,1.012,1.209,1.209,0,0,0,1.29,2.044,6.11,6.11,0,0,1,2.99-.637,61.085,61.085,0,0,1,6.3.98,49.481,49.481,0,0,0,7.633,1.088,5.679,5.679,0,0,0,1.247-.117c2.161-.493,5.082-1.393,5.494-3.5a2.978,2.978,0,0,0-.6-2.3,8.715,8.715,0,0,0,3.36-2.084l.041-.039a40.646,40.646,0,0,1,8.6-6.827c.628-.271,3.318-.081,4.209.866.143.155.45.474,0,1.366-5.4,8.129-7.656,10.813-8.591,11.631a137.263,137.263,0,0,1-13.334,8.529,1.152,1.152,0,0,0-.212.142c-2.994,2.5-7.521,2.917-13.454,1.227-12.721-4.072-16.259-3.864-17.821-3.355a1.236,1.236,0,0,0-.146.059c-1.486.713-2.9,1.376-4.225,1.984L47.37,413.427A10.374,10.374,0,0,0,48.947,412.409Zm-8.754,22.958a1.211,1.211,0,0,0,1.167.9,1.237,1.237,0,0,0,.315-.041l9.844-2.638a1.209,1.209,0,0,0,.862-1.477l0-.006-.393-1.462c1.417-.647,2.946-1.363,4.56-2.134,1.151-.332,4.795-.291,16.279,3.384l.038.013a26.291,26.291,0,0,0,7.166,1.118,12.888,12.888,0,0,0,8.423-2.728,139.019,139.019,0,0,0,13.683-8.787c1.548-1.354,4.507-5.334,9.044-12.172a.856.856,0,0,0,.072-.109,3.454,3.454,0,0,0-.464-4.3c-1.762-1.734-5.628-1.992-7.026-1.229a.093.093,0,0,1-.029.017,43.1,43.1,0,0,0-9.127,7.226,5.044,5.044,0,0,1-4.344,1.669,82.835,82.835,0,0,1-19.52-5.3c-8.595-3.775-16.456-2.673-23.366,3.275a4.965,4.965,0,0,1-.646.43l-.143-.535a1.211,1.211,0,0,0-1.48-.86h0l-9.851,2.644a1.21,1.21,0,0,0-.856,1.482Z" transform="translate(-34.355 -365.562)" fill="#fff" fill-rule="evenodd"/>
</svg>
