<svg id="Grupo_1178" data-name="Grupo 1178" xmlns="http://www.w3.org/2000/svg" xmlns:xlink="http://www.w3.org/1999/xlink" width="171.143" height="72.972" viewBox="0 0 171.143 72.972">
    <defs>
        <clipPath id="clip-path">
            <rect id="Retângulo_50" data-name="Retângulo 50" width="171.143" height="72.972" fill="none"/>
        </clipPath>
    </defs>
    <g id="Grupo_1177" data-name="Grupo 1177" clip-path="url(#clip-path)">
        <path id="Caminho_83" data-name="Caminho 83" d="M39.151,0H50.868c5.484,0,9.193,4.024,9.193,9.706s-3.709,9.784-9.193,9.784H46.055v8.719h-6.9Zm10.3,13.572c2.407,0,3.591-1.618,3.591-3.866s-1.183-3.788-3.472-3.788H46.055v7.654Z" transform="translate(-17.66)" fill="#612783"/>
        <path id="Caminho_84" data-name="Caminho 84" d="M94.839,22.29h-8.8l-1.7,5.919h-7.1L86.83,0h7.26l9.587,28.209h-7.1ZM90.42,6.43s-.631,3.077-1.144,4.853l-1.618,5.484h5.563l-1.578-5.484C91.13,9.508,90.5,6.43,90.5,6.43Z" transform="translate(-34.842 0)" fill="#612783"/>
        <path id="Caminho_85" data-name="Caminho 85" d="M133.544,19.238s3.092,2.825,6.527,2.825c1.375,0,2.863-.535,2.863-2.176,0-3.245-12.292-3.13-12.292-11.527C130.643,3.32,134.88,0,140.3,0c5.879,0,8.78,3.092,8.78,3.092l-2.825,5.459a10.414,10.414,0,0,0-6.032-2.405c-1.374,0-2.9.611-2.9,2.138,0,3.435,12.291,2.824,12.291,11.451,0,4.542-3.473,8.474-9.619,8.474a14.092,14.092,0,0,1-9.963-3.894Z" transform="translate(-58.654)" fill="#612783"/>
        <path id="Caminho_86" data-name="Caminho 86" d="M173.877,19.238s3.092,2.825,6.527,2.825c1.375,0,2.863-.535,2.863-2.176,0-3.245-12.292-3.13-12.292-11.527,0-5.039,4.237-8.36,9.657-8.36,5.879,0,8.78,3.092,8.78,3.092l-2.825,5.459a10.414,10.414,0,0,0-6.032-2.405c-1.374,0-2.9.611-2.9,2.138,0,3.435,12.291,2.824,12.291,11.451,0,4.542-3.473,8.474-9.619,8.474a14.092,14.092,0,0,1-9.963-3.894Z" transform="translate(-76.847)" fill="#612783"/>
        <path id="Caminho_87" data-name="Caminho 87" d="M226.067,0c8.245,0,14.276,6.108,14.276,13.933a14.276,14.276,0,1,1-28.552,0C211.791,6.107,217.822,0,226.067,0m0,22.1c4.085,0,7.367-3.512,7.367-8.169a7.381,7.381,0,1,0-14.734,0c0,4.657,3.283,8.169,7.367,8.169" transform="translate(-95.533 0)" fill="#612783"/>
        <path id="Caminho_88" data-name="Caminho 88" d="M269.558.062h6.782V17.58c0,2.906,1.9,4.457,4.806,4.457s4.806-1.551,4.806-4.457V.062h6.782V17.58c0,6.239-4.573,10.657-11.549,10.657-7.054,0-11.627-4.418-11.627-10.657Z" transform="translate(-121.59 -0.028)" fill="#612783"/>
        <path id="Caminho_89" data-name="Caminho 89" d="M225.555,59.448c8.295,0,14.362,6.144,14.362,14.016a14.362,14.362,0,0,1-28.723,0c0-7.872,6.067-14.016,14.362-14.016m0,22.234c4.109,0,7.412-3.533,7.412-8.218a7.425,7.425,0,1,0-14.823,0c0,4.685,3.3,8.218,7.411,8.218" transform="translate(-95.263 -26.815)" fill="#3fa896"/>
        <path id="Caminho_90" data-name="Caminho 90" d="M269.3,59.511h6.823V77.133c0,2.924,1.91,4.484,4.834,4.484s4.834-1.56,4.834-4.484V59.511h6.823V77.133c0,6.277-4.6,10.721-11.617,10.721-7.1,0-11.7-4.444-11.7-10.721Z" transform="translate(-121.476 -26.844)" fill="#3fa896"/>
        <path id="Caminho_91" data-name="Caminho 91" d="M75.3,81.872h-8.85l-1.707,5.954H57.6l9.645-28.378h7.3l9.644,28.378H77.044ZM70.854,65.918s-.636,3.1-1.152,4.882l-1.627,5.517h5.6L72.083,70.8c-.516-1.786-1.151-4.882-1.151-4.882Z" transform="translate(-25.98 -26.815)" fill="#3fa896"/>
        <path id="Caminho_92" data-name="Caminho 92" d="M111.845,59.448h7.025L126.728,72.7a50.639,50.639,0,0,1,2.382,4.843h.08s-.317-3.056-.317-4.843V59.448h6.946V87.825h-6.986l-7.9-13.216a50.739,50.739,0,0,1-2.381-4.842h-.08s.317,3.056.317,4.842V87.825h-6.946Z" transform="translate(-50.45 -26.815)" fill="#3fa896"/>
        <path id="Caminho_93" data-name="Caminho 93" d="M161.3,59.448h6.946V70.8h10.319V59.448h6.945V87.825h-6.945V76.713H168.248V87.825H161.3Z" transform="translate(-72.759 -26.815)" fill="#3fa896"/>
        <path id="Caminho_94" data-name="Caminho 94" d="M20.51,21.386a5.242,5.242,0,1,1-5.242-5.242,5.242,5.242,0,0,1,5.242,5.242" transform="translate(-4.522 -7.282)" fill="#3fa896"/>
        <path id="Caminho_95" data-name="Caminho 95" d="M14.222,89.331c-.289,0-.574.026-.86.044l.891-1.536A14,14,0,0,0,28.441,73.447a14.183,14.183,0,0,0-2.372-7.963h2.368V59.4h-14.7v.023A13.8,13.8,0,0,0,0,73.447,14.168,14.168,0,0,0,7.072,86l-.765,1.325L3.262,92.6l.917.917c.288-.284.592-.552.9-.811-.31.26-.614.526-.9.811L8.742,98.08a7.1,7.1,0,0,1,5.48-2.591,7.217,7.217,0,0,1,6.559,4.277l5.782-3.343a14.374,14.374,0,0,0-12.34-7.092m0-23.774c4.068,0,7.339,3.387,7.339,7.89,0,4.695-3.271,8.236-7.339,8.236s-7.339-3.541-7.339-8.236c0-4.5,3.27-7.89,7.339-7.89M5.846,92.112l0,0c-.163.119-.328.234-.486.36q.236-.188.481-.365" transform="translate(0 -26.793)" fill="#3fa896"/>
    </g>
</svg>
